<?xml version="1.0" encoding="UTF-8"?>
<svg width="32px" height="32px" viewBox="0 0 32 32" version="1.1" xmlns="http://www.w3.org/2000/svg" xmlns:xlink="http://www.w3.org/1999/xlink">
    <!-- Generator: Sketch 58 (84663) - https://sketch.com -->
    <title>个人头像</title>
    <desc>Created with Sketch.</desc>
    <defs>
        <linearGradient x1="50%" y1="100%" x2="50%" y2="3.061617e-15%" id="linearGradient-1">
            <stop stop-color="#DBE0FB" stop-opacity="0" offset="0%"></stop>
            <stop stop-color="#B4BEF5" stop-opacity="0.540728802" offset="100%"></stop>
        </linearGradient>
        <linearGradient x1="50%" y1="-61.8038862%" x2="50%" y2="100%" id="linearGradient-2">
            <stop stop-color="#497CEC" offset="0%"></stop>
            <stop stop-color="#D3DFFA" offset="100%"></stop>
        </linearGradient>
    </defs>
    <g id="智能服务营销平台" stroke="none" stroke-width="1" fill="none" fill-rule="evenodd">
        <g id="30坐席实时状态监控备份" transform="translate(-116.000000, -181.000000)">
            <rect fill="#EBF0F5" x="0" y="0" width="1360" height="816"></rect>
            <circle id="椭圆形" fill="url(#linearGradient-1)" cx="132" cy="197" r="16"></circle>
            <path d="M131.952153,188.017782 L132.165929,188.024807 C136.596929,188.202675 137.526194,190.442754 137.756314,191.403065 L137.784735,191.531186 C137.91834,192.184583 138.040481,193.243054 137.727015,194.971032 L137.606755,195.592399 C138.195182,195.563767 138.489395,195.799306 138.489395,196.299016 C138.489395,197.239964 137.881192,198.076809 137.881192,198.455942 L137.883454,198.733065 C137.880171,199.348858 137.787524,200.599452 136.793931,200.462773 C136.572655,201.59775 136.321827,202.447744 136.041446,203.012756 C135.907777,203.282122 135.650039,203.686306 135.284593,204.104999 L135.408984,205.773181 L135.454136,205.998866 C135.571929,206.52456 135.758062,206.77962 136.721002,207.174773 C137.72139,207.585293 138.367173,207.500854 139.336275,207.495739 L139.894394,207.498659 C141.088492,207.498659 142.168409,207.828827 143.134145,208.489162 C140.254056,211.281832 136.327678,213 132,213 C127.659608,213 123.722878,211.271722 120.840441,208.465799 C121.742112,207.856362 122.743098,207.535931 123.843069,207.501725 L124.041309,207.498659 L124.920667,207.503566 C125.748608,207.504997 126.445046,207.470849 127.214701,207.174773 C128.240906,206.780005 128.399599,206.459035 128.526719,205.773181 L128.648208,204.141652 C128.270123,203.713421 128.002902,203.295201 127.862742,203.012756 C127.582362,202.447744 127.331533,201.59775 127.110258,200.462773 C125.917946,200.626788 126.022996,198.793129 126.022996,198.455942 C126.022996,198.076809 125.414793,197.239964 125.414793,196.299016 C125.414793,195.799306 125.709007,195.563767 126.297433,195.592399 L126.214649,195.172995 C125.865622,193.332115 125.83389,192.118179 126.119453,191.531186 C126.467623,190.815501 127.11242,190.255972 128.053845,189.852602 C128.752349,188.496533 130.051785,187.884927 131.952153,188.017782 Z" id="路径" fill="url(#linearGradient-2)"></path>
        </g>
    </g>
</svg>